{
  "asset": {
    "generator": "glTF-Transform v4.2.1",
    "version": "2.0"
  },
  "accessors": [
    {
      "type": "VEC3",
      "componentType": 5126,
      "count": 607128,
      "max": [
        15.811376571655273,
        15.877245903015137,
        12.570615768432617
      ],
      "min": [
        -12.604334831237793,
        -4.384037971496582,
        -9.895031929016113
      ],
      "bufferView": 0,
      "byteOffset": 0
    },
    {
      "type": "VEC3",
      "componentType": 5126,
      "count": 607128,
      "bufferView": 0,
      "byteOffset": 12
    },
    {
      "type": "VEC2",
      "componentType": 5126,
      "count": 607128,
      "bufferView": 0,
      "byteOffset": 24
    },
    {
      "type": "SCALAR",
      "componentType": 5125,
      "count": 607128,
      "bufferView": 1,
      "byteOffset": 0
    }
  ],
  "bufferViews": [
    {
      "buffer": 0,
      "byteOffset": 0,
      "byteLength": 19428096,
      "byteStride": 32,
      "target": 34962
    },
    {
      "buffer": 0,
      "byteOffset": 19428096,
      "byteLength": 2428512,
      "target": 34963
    }
  ],
  "buffers": [
    {
      "uri": "buffer.bin",
      "byteLength": 21856608
    }
  ],
  "materials": [
    {
      "pbrMetallicRoughness": {
        "baseColorFactor": [
          0.6038273388475408,
          0.6038273388475408,
          0.6038273388475408,
          1
        ],
        "roughnessFactor": 0.5,
        "metallicFactor": 0.5
      }
    }
  ],
  "meshes": [
    {
      "primitives": [
        {
          "attributes": {
            "POSITION": 0,
            "NORMAL": 1,
            "TEXCOORD_0": 2
          },
          "mode": 4,
          "material": 0,
          "indices": 3
        }
      ]
    }
  ],
  "nodes": [
    {
      "name": "Particle View 01",
      "translation": [
        9662.7060546875,
        0,
        -10049.1923828125
      ],
      "rotation": [
        -0.70710676908493,
        0,
        0,
        0.7071067932881648
      ]
    },
    {
      "name": "Particle View 001",
      "translation": [
        -720.921142578125,
        0,
        688.6268920898438
      ]
    },
    {
      "name": "Particle View 001_1",
      "translation": [
        -67.65320587158203,
        -145.65121459960938,
        166.62838745117188
      ],
      "rotation": [
        -0.70710676908493,
        0,
        0,
        0.7071067932881648
      ]
    },
    {
      "name": "IKEA 3850",
      "translation": [
        -73.4793701171875,
        -145.65121459960938,
        569.6824340820312
      ],
      "rotation": [
        -0.70710676908493,
        0,
        0,
        0.7071067932881648
      ]
    },
    {
      "name": "IKEA 3854",
      "translation": [
        1015.1015625,
        185.69882202148438,
        559.5830688476562
      ],
      "rotation": [
        0.7071068882942235,
        -6.181723826945463e-8,
        1.0392100344870302e-14,
        0.7071066740788525
      ]
    },
    {
      "name": "IKEA 38172",
      "translation": [
        215.99020385742188,
        -145.65121459960938,
        591.0072021484375
      ],
      "rotation": [
        -0.70710676908493,
        0,
        0,
        0.7071067932881648
      ]
    },
    {
      "name": "Particle View 001_2",
      "translation": [
        -649.2432861328125,
        29.527559280395508,
        -2140.69287109375
      ]
    },
    {
      "name": "Particle View 001_3",
      "translation": [
        863.69580078125,
        0,
        297.2656555175781
      ],
      "rotation": [
        -0.70710676908493,
        0,
        0,
        0.7071067932881648
      ]
    },
    {
      "name": "archinteriors17_10_161",
      "translation": [
        5447.39453125,
        0,
        -449.0926513671875
      ]
    },
    {
      "name": "Particle View 002",
      "translation": [
        5447.39453125,
        0,
        -449.0926513671875
      ],
      "rotation": [
        -0.70710676908493,
        0,
        0,
        0.7071067932881648
      ]
    },
    {
      "name": "AI33_06_Archinteriors7_08_112",
      "translation": [
        4253.048828125,
        0,
        1442.991455078125
      ],
      "rotation": [
        -0.70710676908493,
        0,
        0,
        0.7071067932881648
      ]
    },
    {
      "name": "AI33_06_Archinteriors7_08_113",
      "translation": [
        4253.048828125,
        0,
        1442.991455078125
      ],
      "rotation": [
        -0.70710676908493,
        0,
        0,
        0.7071067932881648
      ]
    },
    {
      "name": "AI33_06_Particle View 01",
      "translation": [
        4726.9736328125,
        -0.1338958740234375,
        1642.688720703125
      ],
      "rotation": [
        -0.13830548482094066,
        0.6934490516894106,
        0.6934490557124183,
        0.1383054945052163
      ]
    },
    {
      "name": "archinteriors17_10_162",
      "translation": [
        863.69580078125,
        0,
        297.2656555175781
      ]
    },
    {
      "name": "Particle View 003",
      "translation": [
        863.69580078125,
        0,
        297.2656555175781
      ],
      "rotation": [
        -0.70710676908493,
        0,
        0,
        0.7071067932881648
      ]
    },
    {
      "name": "Rose",
      "translation": [
        -1.4620800018310547,
        4.831864356994629,
        1.0843333005905151
      ],
      "rotation": [
        4.999178315424426e-8,
        0.6755902171508765,
        -6.602009967789322e-8,
        0.7372773280727033
      ],
      "mesh": 0
    },
    {
      "name": "FBX_Root",
      "children": [
        0,
        1,
        2,
        3,
        4,
        5,
        6,
        7,
        8,
        9,
        10,
        11,
        12,
        13,
        14,
        15
      ]
    }
  ],
  "scenes": [
    {
      "name": "empty_1",
      "nodes": [
        16
      ]
    }
  ],
  "scene": 0
}